<svg version="1.1" id="Layer_1" xmlns="http://www.w3.org/2000/svg" xmlns:xlink="http://www.w3.org/1999/xlink" x="0px" y="0px"
	 width="100%" viewBox="0 0 1200 1200" enable-background="new 0 0 1200 1200" xml:space="preserve">
<path fill="#905C3F" opacity="1.000000" stroke="none" 
	d="
M698.000000,1201.000000 
	C466.833344,1201.000000 236.166672,1200.989380 5.500042,1201.093506 
	C1.750802,1201.095215 0.906084,1200.249023 0.907021,1196.500000 
	C1.006199,799.500000 1.006199,402.500000 0.907021,5.500023 
	C0.906084,1.750933 1.750933,0.906086 5.500023,0.907022 
	C402.500000,1.006185 799.500000,1.006186 1196.500000,0.907022 
	C1200.249023,0.906086 1201.093994,1.750932 1201.093140,5.500023 
	C1200.993896,402.500000 1200.993896,799.500000 1201.093140,1196.500000 
	C1201.093994,1200.249023 1200.249268,1201.096436 1196.499878,1201.093994 
	C1030.500000,1200.985352 864.500000,1201.000000 698.000000,1201.000000 
z"/>
<path fill="#F8ECB7" opacity="1.000000" stroke="none" 
	d="
M256.550537,504.516113 
	C267.996429,490.189514 279.328339,476.224670 290.392090,462.050476 
	C294.880585,456.300018 300.334015,453.802032 307.619659,453.970306 
	C342.237946,454.769745 376.861206,455.358978 411.483429,455.982971 
	C423.472351,456.199036 435.463379,456.295685 447.453308,456.457397 
	C449.117615,456.479858 450.801849,456.415924 452.440918,456.646851 
	C456.324768,457.194092 459.030853,459.179535 459.159637,463.384888 
	C459.289978,467.642792 456.616119,469.932037 452.765839,470.360260 
	C445.662872,471.150269 438.514954,471.554504 431.380188,472.036743 
	C402.328308,474.000214 373.274963,475.942230 344.220184,477.862335 
	C340.898285,478.081909 337.559570,478.041687 334.236359,478.246826 
	C325.822601,478.766327 321.536041,482.215302 319.112976,490.317688 
	C316.015625,500.674683 312.889465,511.023285 309.864655,521.401428 
	C309.132782,523.912537 307.862427,525.816772 305.719055,527.376038 
	C298.586334,532.564880 291.534607,537.866272 284.501740,543.190491 
	C281.627258,545.366638 279.432007,548.104797 282.207733,551.606323 
	C284.696838,554.746216 287.746765,553.843872 290.576111,551.675903 
	C291.764587,550.765259 293.025818,549.950256 294.232727,549.062866 
	C311.528809,536.345825 328.816467,523.617371 346.116577,510.905762 
	C356.313141,503.413666 366.504272,495.913666 376.744476,488.481476 
	C382.073242,484.613922 386.851288,484.756805 390.100037,488.693848 
	C393.402039,492.695312 392.832367,497.476898 388.341217,501.977112 
	C361.398987,528.973511 334.432129,555.945374 307.469604,582.921509 
	C298.660461,591.735107 288.005676,596.002502 275.556183,595.981201 
	C253.896576,595.944092 232.236801,596.003601 210.577209,595.958008 
	C203.821289,595.943848 202.146866,594.130005 202.142105,587.229004 
	C202.131546,571.900635 202.131027,556.572205 202.143356,541.243835 
	C202.149033,534.183777 203.535522,532.449402 210.632172,532.851929 
	C225.687759,533.705811 238.152603,529.380066 247.042969,516.555420 
	C249.883316,512.458130 253.219452,508.704529 256.550537,504.516113 
z"/>
<path fill="#F8ECB7" opacity="1.000000" stroke="none" 
	d="
M409.769989,661.810303 
	C411.778229,660.279297 413.544464,659.016968 415.178589,657.602112 
	C417.692200,655.425659 418.256805,652.739868 416.135010,650.107361 
	C413.910309,647.347229 411.064880,647.939636 408.546509,649.737000 
	C401.906860,654.475464 395.352509,659.333740 388.776184,664.160645 
	C367.161072,680.025513 345.566345,695.918213 323.918945,711.738892 
	C321.410217,713.572266 319.098969,715.859863 315.646698,716.062988 
	C311.994690,716.278015 309.124268,715.206299 307.239868,711.907104 
	C305.396759,708.680115 305.489960,705.535217 307.615417,702.533813 
	C308.569275,701.186768 309.731384,699.968384 310.906311,698.799500 
	C338.064545,671.780396 365.215576,644.754028 392.422363,617.783875 
	C399.834229,610.436523 408.733368,606.512573 419.321350,606.542114 
	C442.317596,606.606079 465.314178,606.551392 488.310608,606.566589 
	C494.840210,606.570923 496.180054,607.889404 496.197571,614.523926 
	C496.238495,630.021423 496.241821,645.519165 496.195496,661.016602 
	C496.175995,667.547058 494.230591,669.507507 487.334534,669.437500 
	C478.444733,669.347412 469.640289,669.285217 461.913788,674.713074 
	C454.672363,679.800049 449.979828,687.208862 444.542053,693.901550 
	C432.152008,709.150818 419.898285,724.513672 407.792023,739.989136 
	C403.299164,745.732300 397.755493,748.289978 390.541443,748.153564 
	C347.256195,747.335205 303.967163,746.703491 260.684692,745.766052 
	C255.724899,745.658630 250.740570,745.155029 245.751450,745.051758 
	C241.538223,744.964600 239.198303,742.440063 239.047211,738.467651 
	C238.900085,734.598938 241.272049,732.196960 245.151047,731.901367 
	C262.408661,730.586243 279.674316,729.375916 296.938477,728.148193 
	C320.009827,726.507446 343.081055,724.864929 366.155518,723.269043 
	C372.845551,722.806458 376.868286,719.126038 378.745789,712.957153 
	C381.893005,702.616272 384.965332,692.251282 387.922089,681.854614 
	C388.874390,678.506104 390.484375,675.866943 393.369446,673.832092 
	C398.809052,669.995361 404.110138,665.962158 409.769989,661.810303 
z"/>
<path fill="#F8EBB7" opacity="1.000000" stroke="none" 
	d="
M650.832275,572.663940 
	C658.372437,575.186584 665.720764,576.475769 673.304810,575.897400 
	C680.756409,575.328979 685.321106,571.253723 686.029724,564.853882 
	C686.376221,561.723999 686.033630,560.161377 682.142212,561.494751 
	C676.207092,563.528381 670.049927,563.450989 663.888550,562.137939 
	C654.494385,560.135925 647.997498,554.723572 644.653198,545.759155 
	C641.093506,536.217346 640.829285,526.435974 644.296509,516.884033 
	C649.107178,503.630981 659.596191,497.606232 672.997253,496.250092 
	C683.202881,495.217285 693.247864,497.004181 703.208374,499.154907 
	C705.313599,499.609497 706.194275,500.698883 706.180786,502.956329 
	C706.058350,523.448975 706.469910,543.955872 705.837585,564.431152 
	C705.314026,581.386475 695.218689,590.737244 676.829468,592.726685 
	C667.439087,593.742554 658.237366,592.406372 649.147461,589.980835 
	C646.610291,589.303833 645.436951,588.215088 646.125732,585.444702 
	C646.968262,582.055786 647.482544,578.585144 648.330750,575.197876 
	C648.599121,574.125977 648.327820,572.250305 650.832275,572.663940 
z"/>
<path fill="#F8EBB6" opacity="1.000000" stroke="none" 
	d="
M551.341797,693.285156 
	C547.823853,692.044067 547.658997,693.967834 547.670349,696.211304 
	C547.699890,702.035522 547.362549,707.881897 547.769592,713.677429 
	C548.091736,718.264709 546.376709,719.497009 542.114197,719.075562 
	C538.653320,718.733459 535.115601,718.797241 531.641968,719.066895 
	C528.528748,719.308533 527.563293,718.151855 527.641968,715.153198 
	C527.799133,709.166565 527.682800,703.172791 527.682556,697.182007 
	C527.681763,675.548523 527.902222,653.911255 527.527100,632.284241 
	C527.433777,626.905640 529.237000,624.998108 534.190857,624.303040 
	C544.075439,622.916138 553.911133,620.956238 563.937256,622.617371 
	C580.369751,625.339966 590.077332,634.965759 592.604309,651.388672 
	C593.830994,659.361145 593.279480,667.339417 590.597046,675.038330 
	C584.939087,691.277466 570.504395,698.089050 551.341797,693.285156 
z"/>
<path fill="#F7EAB6" opacity="1.000000" stroke="none" 
	d="
M745.676025,545.000122 
	C745.675171,551.499390 745.513306,557.504578 745.735901,563.495544 
	C745.861877,566.884888 744.917114,568.332825 741.294312,568.069092 
	C736.329651,567.707764 729.829285,569.628723 726.763367,567.144775 
	C723.517578,564.515015 725.742310,557.756042 725.724243,552.814148 
	C725.626282,525.984558 725.773071,499.153748 725.574890,472.325256 
	C725.545471,468.341003 726.628662,466.452606 730.598694,466.352722 
	C731.591064,466.327728 732.576538,466.080872 733.567810,465.957184 
	C737.340454,465.486633 742.231567,462.871765 744.573792,464.861511 
	C747.508606,467.354797 745.476868,472.666992 745.625366,476.749207 
	C745.831177,482.407806 745.792053,488.082092 745.643616,493.744019 
	C745.565552,496.721100 746.681274,497.622009 749.487366,496.907257 
	C754.074829,495.738861 758.736450,495.690643 763.383606,496.411743 
	C777.167664,498.550690 784.775452,506.379486 785.928345,520.325684 
	C787.151550,535.121765 786.225159,549.975159 786.481262,564.800354 
	C786.529358,567.585693 785.222656,568.119873 782.816162,568.043274 
	C778.654236,567.910828 774.473511,567.816833 770.322632,568.068237 
	C767.097290,568.263550 766.403809,566.864014 766.432983,563.987122 
	C766.541260,553.322876 766.544983,542.656067 766.423340,531.992065 
	C766.381714,528.344360 766.202393,524.630859 765.471436,521.073792 
	C764.331909,515.529236 761.281128,513.294373 755.595825,513.030762 
	C746.782898,512.622131 745.677368,513.677246 745.676331,522.502869 
	C745.675415,529.835266 745.676147,537.167725 745.676025,545.000122 
z"/>
<path fill="#F8ECB7" opacity="1.000000" stroke="none" 
	d="
M744.924255,668.000000 
	C744.924377,644.353333 745.006042,621.206116 744.840759,598.060669 
	C744.814575,594.393005 745.716248,592.625305 749.556030,592.377014 
	C753.028748,592.152527 756.572632,591.739990 759.893066,590.759827 
	C764.560608,589.381958 765.037170,591.384094 764.989502,595.346130 
	C764.804810,610.663940 764.907654,625.985413 764.924988,641.305481 
	C764.926819,642.898071 765.072083,644.490540 765.216919,647.422241 
	C772.026855,640.172913 778.110596,633.896606 783.937439,627.390076 
	C786.104736,624.969971 788.289185,623.765808 791.631226,623.919434 
	C797.549500,624.191467 803.489197,623.995728 810.971924,623.995728 
	C803.525513,632.050598 797.014465,639.041565 790.568665,646.092102 
	C787.996399,648.905640 783.229980,651.168457 783.260925,654.449768 
	C783.286804,657.201355 787.622986,659.884094 789.992859,662.646912 
	C797.379211,671.257568 804.028381,680.391357 809.744202,690.209900 
	C811.513245,693.248535 810.953430,694.405701 807.434875,694.007996 
	C807.106018,693.970825 806.759888,693.952332 806.437622,694.011597 
	C794.176453,696.268188 785.353455,692.600891 779.767639,680.630005 
	C776.798462,674.267029 771.562012,668.966309 764.914673,663.426514 
	C764.914673,669.246887 765.016663,674.092285 764.885925,678.931335 
	C764.756409,683.725037 766.936035,689.976807 764.065552,692.926147 
	C760.951538,696.125793 754.583496,693.447754 749.692627,694.055481 
	C745.497437,694.576782 744.716309,692.684387 744.852905,688.979553 
	C745.104248,682.161438 744.924377,675.327393 744.924255,668.000000 
z"/>
<path fill="#F8EBB7" opacity="1.000000" stroke="none" 
	d="
M579.690979,503.286804 
	C589.921875,512.954285 590.850403,525.067505 590.171753,537.695251 
	C590.009521,540.712341 587.872742,539.973389 586.218018,539.979492 
	C573.886719,540.025024 561.555237,539.988403 549.223877,540.014221 
	C544.582947,540.023926 544.025330,541.030640 546.506531,545.132324 
	C549.881653,550.711609 555.455444,552.326904 561.421021,552.858704 
	C567.791687,553.426758 574.103394,552.580994 580.170044,550.678101 
	C583.140259,549.746460 584.171936,550.453613 584.236694,553.347717 
	C584.247681,553.837891 584.451416,554.321594 584.545471,554.812256 
	C586.838196,566.774658 586.711975,566.984192 574.720032,568.866699 
	C565.769592,570.271729 556.813782,570.857971 547.980957,568.158325 
	C534.696228,564.098022 527.174377,555.044800 524.931274,541.414368 
	C523.860352,534.906616 524.025269,528.458923 525.655029,522.084412 
	C531.918152,497.587616 559.089600,487.985199 579.690979,503.286804 
z"/>
<path fill="#F8EBB7" opacity="1.000000" stroke="none" 
	d="
M644.519287,622.243347 
	C668.488464,625.803833 673.008789,645.959351 671.835938,663.401428 
	C671.623596,666.559448 669.393433,665.987244 667.484314,665.991211 
	C655.318604,666.016479 643.152771,665.987427 630.987122,666.014709 
	C626.335876,666.025146 625.637634,667.184631 628.015564,671.127686 
	C631.381836,676.709351 636.957520,678.328247 642.921936,678.860657 
	C649.292969,679.429321 655.614563,678.605652 661.669617,676.670776 
	C664.734741,675.691284 665.595764,676.706421 665.853577,679.378235 
	C665.933533,680.207214 666.023438,681.037109 666.155762,681.859009 
	C667.897949,692.679626 667.917908,692.779846 657.187317,694.678833 
	C649.284851,696.077271 641.348755,696.623230 633.337463,695.119812 
	C619.252625,692.476501 609.757996,683.360962 606.832764,669.350769 
	C605.273987,661.885254 605.367004,654.408691 607.360413,647.072388 
	C611.913086,630.317383 625.459045,621.220459 644.519287,622.243347 
z"/>
<path fill="#F7EBB6" opacity="1.000000" stroke="none" 
	d="
M835.824707,569.954346 
	C833.024414,569.949890 830.684387,570.051941 828.364136,569.882385 
	C814.141113,568.842957 805.929443,561.055115 804.983948,546.813538 
	C803.581909,525.694946 804.697998,504.527954 804.366211,483.385254 
	C804.325378,480.781769 805.449463,479.974579 807.831421,479.674438 
	C812.284912,479.113281 816.732971,478.410339 821.122864,477.480652 
	C823.715576,476.931549 824.405762,477.890472 824.378906,480.221832 
	C824.328918,484.551300 824.570496,488.893127 824.321960,493.208527 
	C824.114197,496.815369 825.156799,498.316589 829.038940,498.070984 
	C834.181152,497.745605 839.363525,498.113342 844.520752,497.943756 
	C847.200867,497.855591 848.268188,498.554321 848.419922,501.474548 
	C849.123535,515.013123 849.216248,515.008301 835.579773,515.008301 
	C824.379028,515.008301 824.335388,515.008545 824.397400,526.232483 
	C824.428650,531.888550 824.327454,537.574768 824.868591,543.191223 
	C825.573425,550.506409 828.747620,553.050049 836.072998,552.958862 
	C837.894470,552.936218 839.732605,552.747314 841.528381,552.435181 
	C848.583801,551.208862 848.578735,551.179260 849.848877,558.375549 
	C851.415649,567.252930 851.419312,567.271484 842.217285,569.076721 
	C840.261963,569.460327 838.269470,569.654053 835.824707,569.954346 
z"/>
<path fill="#F8EBB6" opacity="1.000000" stroke="none" 
	d="
M844.902649,667.962341 
	C840.263916,666.004333 835.877869,664.386230 831.729858,662.295532 
	C823.522095,658.158691 820.261230,651.190918 820.731689,642.171143 
	C821.182068,633.534912 825.687622,627.812439 833.442383,624.701538 
	C844.837891,620.130005 856.747986,620.744812 867.528137,625.379578 
	C872.562744,627.544128 866.975769,634.018005 866.910278,638.593201 
	C866.863892,641.837036 864.445312,640.399536 862.873901,639.967712 
	C857.864319,638.591187 852.807434,637.612427 847.595032,638.101440 
	C844.578308,638.384521 841.296387,638.788513 840.538635,642.454529 
	C839.751038,646.264526 842.760010,647.716858 845.551636,648.890991 
	C850.606323,651.017212 855.856140,652.703308 860.826172,655.001892 
	C870.150330,659.314453 873.717651,665.846497 872.948975,676.321533 
	C872.320007,684.893311 867.335815,691.151978 858.253052,693.853394 
	C845.896667,697.528320 833.574890,696.511292 821.382019,692.732056 
	C819.463623,692.137451 818.695129,691.108704 819.198914,689.054504 
	C820.149170,685.179626 819.834717,680.321228 822.115112,677.615723 
	C824.994873,674.199158 829.063232,678.674622 832.758240,679.013672 
	C837.228943,679.423767 841.662964,680.321289 846.171936,679.891418 
	C848.966492,679.625061 852.131531,679.531555 852.889099,675.953247 
	C853.638672,672.412781 850.951660,670.974670 848.410156,669.602173 
	C847.386963,669.049683 846.313538,668.590332 844.902649,667.962341 
z"/>
<path fill="#F8EBB7" opacity="1.000000" stroke="none" 
	d="
M687.927612,630.434448 
	C687.662415,628.024902 688.515869,626.944702 690.405457,626.350769 
	C703.289734,622.300659 716.305359,620.538269 729.718018,623.488586 
	C732.527161,624.106506 733.798706,625.121887 733.036072,628.163635 
	C732.067810,632.025391 732.496643,636.898926 730.241882,639.596436 
	C727.836609,642.473816 723.299622,638.963013 719.633667,639.110413 
	C719.302490,639.123779 718.969177,639.086243 718.636963,639.070129 
	C707.915527,638.549805 707.915588,638.549683 707.915466,649.265747 
	C707.915283,662.570557 707.750000,675.878662 708.013672,689.178223 
	C708.094482,693.255066 706.739258,694.385742 702.927795,694.066345 
	C699.459656,693.775696 695.920532,693.730713 692.462708,694.076721 
	C688.527649,694.470337 687.818909,692.826416 687.848206,689.262085 
	C688.007935,669.805115 687.924805,650.346130 687.927612,630.434448 
z"/>
<path fill="#F7EAB6" opacity="1.000000" stroke="none" 
	d="
M623.526855,498.001526 
	C626.646179,497.927917 626.233643,499.973236 626.236572,501.501251 
	C626.276611,522.468994 626.229675,543.436951 626.307495,564.404480 
	C626.317810,567.184265 625.414551,568.204956 622.580505,568.061157 
	C618.430908,567.850586 614.251892,567.823242 610.105774,568.065613 
	C606.871460,568.254761 606.228394,566.828125 606.240173,563.957031 
	C606.324890,543.322327 606.349548,522.686646 606.221497,502.052429 
	C606.200500,498.668823 607.439636,497.762451 610.595337,497.936096 
	C614.743103,498.164307 618.912903,497.993652 623.526855,498.001526 
z"/>
<path fill="#F7EAB6" opacity="1.000000" stroke="none" 
	d="
M627.296021,472.158447 
	C628.886475,478.092163 628.391113,483.153107 623.324585,486.773132 
	C617.908142,490.643188 610.170532,489.329010 606.447205,484.045349 
	C602.654663,478.663483 604.260437,470.346832 609.759338,466.891083 
	C615.906494,463.027924 622.839233,464.981354 627.296021,472.158447 
z"/>
<path fill="#EEDEAB" opacity="1.000000" stroke="none" 
	d="
M791.660522,704.979187 
	C792.804626,701.603821 794.716248,699.658875 798.039551,700.078186 
	C801.320190,700.492249 802.639160,702.939758 803.278137,705.919556 
	C803.773621,708.230103 803.827698,710.500854 803.334595,712.822449 
	C802.621277,716.180969 801.193237,718.951965 797.317932,718.952454 
	C793.401855,718.952881 792.017395,716.008423 791.313354,712.755188 
	C790.783691,710.307678 790.815674,707.810181 791.660522,704.979187 
z"/>
<path fill="#EEDEAB" opacity="1.000000" stroke="none" 
	d="
M823.488892,702.522949 
	C828.528015,698.615051 832.849426,699.968140 833.957642,705.605652 
	C834.597961,708.863159 834.719360,712.218567 833.293457,715.393494 
	C832.335571,717.526306 830.757141,718.885315 828.348572,718.984497 
	C825.707581,719.093201 823.842834,717.743225 822.923523,715.387024 
	C821.288086,711.195312 821.340881,706.967590 823.488892,702.522949 
z"/>
<path fill="#EEDEAB" opacity="1.000000" stroke="none" 
	d="
M861.956055,718.803955 
	C860.439758,715.056580 858.260254,713.021973 853.972717,713.973572 
	C852.596008,714.279175 851.670532,713.354431 852.332031,711.876770 
	C854.170044,707.770996 856.559265,703.970825 859.789490,700.838135 
	C861.318359,699.355530 862.662598,699.562805 863.009766,702.179077 
	C863.479980,705.723267 861.454041,709.708862 864.788696,712.766846 
	C862.945007,714.337402 863.180298,716.756775 861.956055,718.803955 
z"/>
<path fill="#EEDEAB" opacity="1.000000" stroke="none" 
	d="
M770.261108,716.971558 
	C771.273560,717.138489 772.051636,717.194580 771.890564,718.135559 
	C771.747742,718.970093 770.991211,719.070251 770.359436,719.004578 
	C767.303162,718.686829 762.954712,720.613647 761.478882,718.104065 
	C759.750427,715.164856 763.575806,712.684448 765.597839,710.345032 
	C766.250854,709.589539 767.013000,708.914917 767.581665,708.102783 
	C768.549377,706.721130 769.485413,705.240112 768.267456,703.539612 
	C767.110413,701.924194 765.550232,701.820190 763.828064,702.547180 
	C763.085693,702.860596 762.368042,703.398987 760.580383,702.399231 
	C763.276123,699.914795 765.931580,699.234375 768.874512,700.677551 
	C772.057068,702.238098 772.446594,705.164734 770.701111,707.864319 
	C768.838562,710.744812 766.334961,713.210815 763.860107,716.156555 
	C766.027588,717.403381 768.024841,716.747375 770.261108,716.971558 
z"/>
<path fill="#915E41" opacity="1.000000" stroke="none" 
	d="
M662.949951,525.213867 
	C666.004761,514.425232 672.200867,510.532379 682.834900,512.119324 
	C685.307617,512.488342 686.226135,513.500183 686.196350,515.989441 
	C686.094788,524.481567 686.159180,532.975708 686.153992,541.469055 
	C686.153015,542.983765 686.022034,544.234009 684.380371,545.203247 
	C675.233582,550.603455 664.438232,545.559753 662.776672,535.060242 
	C662.273987,531.883606 662.366760,528.761292 662.949951,525.213867 
z"/>
<path fill="#915E41" opacity="1.000000" stroke="none" 
	d="
M553.754028,677.429565 
	C548.843262,676.888062 547.388550,674.484497 547.562622,669.981934 
	C547.902100,661.201111 547.776245,652.395935 547.609497,643.605225 
	C547.547852,640.357483 548.850952,639.324768 551.921631,639.059387 
	C564.483459,637.973938 570.994751,643.106384 572.634949,655.643311 
	C573.181763,659.823059 572.777039,663.959595 571.698181,667.977234 
	C569.568237,675.910217 564.064636,678.835388 553.754028,677.429565 
z"/>
<path fill="#915E41" opacity="1.000000" stroke="none" 
	d="
M555.051941,526.000854 
	C553.397339,526.000854 552.231323,526.001526 551.065369,526.000732 
	C544.277588,525.995911 543.705017,524.975586 546.998840,518.754639 
	C549.688049,513.675598 555.129517,511.098083 560.881226,512.178894 
	C565.910095,513.123840 569.919495,517.538391 570.833435,522.835938 
	C571.256958,525.290466 570.479919,526.111084 568.032043,526.032898 
	C563.872131,525.899963 559.704773,525.999207 555.051941,526.000854 
z"/>
<path fill="#915E41" opacity="1.000000" stroke="none" 
	d="
M634.085693,652.000854 
	C631.393738,651.650513 628.195312,653.173218 627.161987,651.126892 
	C625.868896,648.566345 627.803406,645.700317 629.359802,643.352295 
	C632.235596,639.013733 637.752258,637.045654 642.948120,638.305786 
	C647.812744,639.485657 651.392395,643.753906 652.242188,648.864014 
	C652.659302,651.372437 651.923157,652.093994 649.493347,652.033936 
	C644.522827,651.911072 639.547119,651.999451 634.085693,652.000854 
z"/>
<path fill="#915E41" opacity="1.000000" stroke="none" 
	d="
M793.994995,707.398682 
	C794.272888,704.741333 794.754761,702.168274 797.440796,702.296997 
	C800.371094,702.437317 800.635986,705.302979 800.814514,707.621765 
	C800.953491,709.427551 800.899658,711.300476 800.567810,713.075562 
	C800.234131,714.860291 799.580139,716.907532 797.234375,716.745850 
	C795.031494,716.594116 794.351074,714.681335 794.121948,712.800903 
	C793.921875,711.158508 794.010193,709.480957 793.994995,707.398682 
z"/>
<path fill="#915E41" opacity="1.000000" stroke="none" 
	d="
M831.579346,707.519714 
	C831.358459,711.220337 832.563599,716.515198 828.183105,716.425110 
	C823.298889,716.324768 824.977417,710.901611 824.833008,707.508606 
	C824.740295,705.331116 825.123596,702.683777 827.699524,702.345642 
	C830.905945,701.924744 830.990601,704.908203 831.579346,707.519714 
z"/>
<path fill="#915E41" opacity="1.000000" stroke="none" 
	d="
M860.030762,706.051392 
	C860.505981,709.725891 860.949219,713.145447 855.355347,711.596558 
	C856.231262,709.112000 856.630615,706.407471 860.030762,706.051392 
z"/>
</svg>